<svg xmlns="http://www.w3.org/2000/svg" viewBox="0 0 100 100" fill="none">

  <!-- Vapor / Steam -->
  <path d="M34 22 C32 17 36 13 34 8" stroke="#F59E0B" stroke-width="2.5" stroke-linecap="round"/>
  <path d="M50 20 C48 15 52 11 50 6" stroke="#F59E0B" stroke-width="2.5" stroke-linecap="round"/>
  <path d="M66 22 C64 17 68 13 66 8" stroke="#F59E0B" stroke-width="2.5" stroke-linecap="round"/>

  <!-- Cabo da tampa -->
  <rect x="43" y="23" width="14" height="8" rx="4" fill="#92400E"/>

  <!-- Tampa -->
  <rect x="16" y="30" width="68" height="11" rx="5.5" fill="#D97706"/>

  <!-- Corpo da panela -->
  <rect x="18" y="41" width="64" height="44" rx="11" fill="#F59E0B"/>

  <!-- Reflexo (brilho) -->
  <ellipse cx="33" cy="62" rx="5" ry="10" fill="white" opacity="0.18" transform="rotate(-10 33 62)"/>

  <!-- Alça esquerda -->
  <path d="M18 48 C5 48 5 62 18 60" stroke="#B45309" stroke-width="5.5" stroke-linecap="round"/>

  <!-- Alça direita -->
  <path d="M82 48 C95 48 95 62 82 60" stroke="#B45309" stroke-width="5.5" stroke-linecap="round"/>

</svg>
